<svg width="500" height="500" viewBox="0 0 500 500" fill="none" xmlns="http://www.w3.org/2000/svg">
<path d="M440 250C464.853 250 485 229.853 485 205C485 180.147 464.853 160 440 160C415.147 160 395 180.147 395 205C395 229.853 415.147 250 440 250Z" stroke="#40DDB6" stroke-width="30" stroke-linecap="round" stroke-linejoin="round"/>
<path d="M60 250C84.8528 250 105 229.853 105 205C105 180.147 84.8528 160 60 160C35.1472 160 15 180.147 15 205C15 229.853 35.1472 250 60 250Z" stroke="#6B78E5" stroke-width="30" stroke-linecap="round" stroke-linejoin="round"/>
<path d="M169 141C193.853 141 214 120.853 214 96C214 71.1472 193.853 51 169 51C144.147 51 124 71.1472 124 96C124 120.853 144.147 141 169 141Z" stroke="#40DDB6" stroke-width="30" stroke-linecap="round" stroke-linejoin="round"/>
<path d="M331 141C355.853 141 376 120.853 376 96C376 71.1472 355.853 51 331 51C306.147 51 286 71.1472 286 96C286 120.853 306.147 141 331 141Z" stroke="#6B78E5" stroke-width="30" stroke-linecap="round" stroke-linejoin="round"/>
<path d="M374.389 313.43C351.8 300.766 335.118 279.689 327.969 254.781C323.106 237.84 312.869 222.943 298.804 212.339C284.738 201.735 267.608 196 250 196C232.392 196 215.262 201.735 201.196 212.339C187.131 222.943 176.894 237.84 172.031 254.781C164.882 279.689 148.2 300.766 125.611 313.43C111.556 321.095 100.448 333.223 94.0373 347.904C87.6264 362.584 86.2768 378.983 90.2012 394.515C94.1256 410.048 103.101 423.833 115.713 433.697C128.325 443.562 143.858 448.945 159.863 449C169.533 449.006 179.107 447.089 188.031 443.361C207.676 435.207 228.734 431.01 250 431.01C271.267 431.01 292.324 435.207 311.969 443.361C320.893 447.089 330.467 449.006 340.137 449C356.142 448.945 371.675 443.562 384.287 433.697C396.899 423.833 405.874 410.048 409.799 394.515C413.723 378.983 412.374 362.584 405.963 347.904C399.552 333.223 388.444 321.095 374.389 313.43Z" stroke="#6B78E5" stroke-width="30" stroke-linecap="round" stroke-linejoin="round"/>
</svg>
